{
	"asset":{
		"generator":"Khronos glTF Blender I/O v3.5.30",
		"version":"2.0"
	},
	"extensionsUsed":[
		"KHR_materials_transmission",
		"KHR_materials_specular",
		"KHR_materials_ior"
	],
	"scene":0,
	"scenes":[
		{
			"name":"Scene",
			"nodes":[
				0
			]
		}
	],
	"nodes":[
		{
			"mesh":0,
			"name":"Cube",
			"scale":[
				1,
				1,
				2
			]
		}
	],
	"materials":[
		{
			"doubleSided":true,
			"extensions":{
				"KHR_materials_transmission":{
					"transmissionFactor":0.013636363670229912
				},
				"KHR_materials_specular":{
					"specularColorFactor":[
						1.183146823479583,
						1.183146823479583,
						1.183146823479583
					]
				},
				"KHR_materials_ior":{
					"ior":1.4500000476837158
				}
			},
			"name":"Material",
			"pbrMetallicRoughness":{
				"baseColorFactor":[
					0.22025755047798157,
					0.22025755047798157,
					0.22025755047798157,
					1
				],
				"metallicFactor":0.3545454442501068,
				"roughnessFactor":0.5
			}
		},
		{
			"doubleSided":true,
			"name":"Preto",
			"pbrMetallicRoughness":{
				"baseColorFactor":[
					0.0020634164102375507,
					0.0020634164102375507,
					0.0020634164102375507,
					1
				],
				"metallicFactor":0,
				"roughnessFactor":0.5
			}
		},
		{
			"doubleSided":true,
			"name":"Verde",
			"pbrMetallicRoughness":{
				"baseColorFactor":[
					0.012664268724620342,
					0.014616861008107662,
					0.0984882041811943,
					1
				],
				"metallicFactor":0.5863636136054993,
				"roughnessFactor":0.5
			}
		},
		{
			"doubleSided":true,
			"name":"Verdin",
			"pbrMetallicRoughness":{
				"baseColorFactor":[
					0.01642015390098095,
					0.024389119818806648,
					0.2265842854976654,
					1
				],
				"metallicFactor":0.37727272510528564,
				"roughnessFactor":0.5
			}
		},
		{
			"doubleSided":true,
			"name":"Verden",
			"pbrMetallicRoughness":{
				"baseColorFactor":[
					0.005293099209666252,
					0.003637798363342881,
					0.0985042080283165,
					1
				],
				"metallicFactor":0,
				"roughnessFactor":0.5
			}
		},
		{
			"doubleSided":true,
			"name":"Escuro",
			"pbrMetallicRoughness":{
				"baseColorFactor":[
					0.019608359783887863,
					0.021628467366099358,
					0.060717929154634476,
					1
				],
				"metallicFactor":0,
				"roughnessFactor":0.5
			}
		},
		{
			"doubleSided":true,
			"name":"Faixa",
			"pbrMetallicRoughness":{
				"baseColorFactor":[
					0.025370165705680847,
					0.027209900319576263,
					0.0258165393024683,
					1
				],
				"metallicFactor":0,
				"roughnessFactor":0.5
			}
		}
	],
	"meshes":[
		{
			"name":"Cube",
			"primitives":[
				{
					"attributes":{
						"POSITION":0,
						"TEXCOORD_0":1,
						"NORMAL":2
					},
					"indices":3,
					"material":0
				},
				{
					"attributes":{
						"POSITION":4,
						"TEXCOORD_0":5,
						"NORMAL":6
					},
					"indices":7,
					"material":1
				},
				{
					"attributes":{
						"POSITION":8,
						"TEXCOORD_0":9,
						"NORMAL":10
					},
					"indices":11,
					"material":2
				},
				{
					"attributes":{
						"POSITION":12,
						"TEXCOORD_0":13,
						"NORMAL":14
					},
					"indices":15,
					"material":3
				},
				{
					"attributes":{
						"POSITION":16,
						"TEXCOORD_0":17,
						"NORMAL":18
					},
					"indices":19,
					"material":4
				},
				{
					"attributes":{
						"POSITION":20,
						"TEXCOORD_0":21,
						"NORMAL":22
					},
					"indices":23,
					"material":5
				},
				{
					"attributes":{
						"POSITION":24,
						"TEXCOORD_0":25,
						"NORMAL":26
					},
					"indices":27,
					"material":6
				}
			]
		}
	],
	"accessors":[
		{
			"bufferView":0,
			"componentType":5126,
			"count":10672,
			"max":[
				2.9971086978912354,
				2.166388750076294,
				0.9929200410842896
			],
			"min":[
				-2.9940707683563232,
				-1.2365696430206299,
				-2.0329408645629883
			],
			"type":"VEC3"
		},
		{
			"bufferView":1,
			"componentType":5126,
			"count":10672,
			"type":"VEC2"
		},
		{
			"bufferView":2,
			"componentType":5126,
			"count":10672,
			"type":"VEC3"
		},
		{
			"bufferView":3,
			"componentType":5123,
			"count":16008,
			"type":"SCALAR"
		},
		{
			"bufferView":4,
			"componentType":5126,
			"count":5632,
			"max":[
				2.600637912750244,
				0.6006374955177307,
				0.9522787928581238
			],
			"min":[
				-2.5832293033599854,
				-0.6006374955177307,
				-0.9494094848632812
			],
			"type":"VEC3"
		},
		{
			"bufferView":5,
			"componentType":5126,
			"count":5632,
			"type":"VEC2"
		},
		{
			"bufferView":6,
			"componentType":5126,
			"count":5632,
			"type":"VEC3"
		},
		{
			"bufferView":7,
			"componentType":5123,
			"count":8448,
			"type":"SCALAR"
		},
		{
			"bufferView":8,
			"componentType":5126,
			"count":1776,
			"max":[
				3.0416672229766846,
				0.4241551458835602,
				0.9299423098564148
			],
			"min":[
				-3.081380605697632,
				-1,
				-0.9187760353088379
			],
			"type":"VEC3"
		},
		{
			"bufferView":9,
			"componentType":5126,
			"count":1776,
			"type":"VEC2"
		},
		{
			"bufferView":10,
			"componentType":5126,
			"count":1776,
			"type":"VEC3"
		},
		{
			"bufferView":11,
			"componentType":5123,
			"count":2664,
			"type":"SCALAR"
		},
		{
			"bufferView":12,
			"componentType":5126,
			"count":1120,
			"max":[
				4.331790924072266,
				0.20334815979003906,
				1.0637041330337524
			],
			"min":[
				-4.481820583343506,
				-0.20334817469120026,
				-0.6494007110595703
			],
			"type":"VEC3"
		},
		{
			"bufferView":13,
			"componentType":5126,
			"count":1120,
			"type":"VEC2"
		},
		{
			"bufferView":14,
			"componentType":5126,
			"count":1120,
			"type":"VEC3"
		},
		{
			"bufferView":15,
			"componentType":5123,
			"count":1680,
			"type":"SCALAR"
		},
		{
			"bufferView":16,
			"componentType":5126,
			"count":720,
			"max":[
				4.825064182281494,
				0.1508444845676422,
				1.0594114065170288
			],
			"min":[
				-4.825064182281494,
				-0.1508444845676422,
				-0.08979189395904541
			],
			"type":"VEC3"
		},
		{
			"bufferView":17,
			"componentType":5126,
			"count":720,
			"type":"VEC2"
		},
		{
			"bufferView":18,
			"componentType":5126,
			"count":720,
			"type":"VEC3"
		},
		{
			"bufferView":19,
			"componentType":5123,
			"count":1080,
			"type":"SCALAR"
		},
		{
			"bufferView":20,
			"componentType":5126,
			"count":1120,
			"max":[
				3.472487449645996,
				0.30241429805755615,
				1.0173436403274536
			],
			"min":[
				-3.6340668201446533,
				-0.30241429805755615,
				-0.8931280970573425
			],
			"type":"VEC3"
		},
		{
			"bufferView":21,
			"componentType":5126,
			"count":1120,
			"type":"VEC2"
		},
		{
			"bufferView":22,
			"componentType":5126,
			"count":1120,
			"type":"VEC3"
		},
		{
			"bufferView":23,
			"componentType":5123,
			"count":1680,
			"type":"SCALAR"
		},
		{
			"bufferView":24,
			"componentType":5126,
			"count":2512,
			"max":[
				4.83950662612915,
				2.1848385334014893,
				0.9933269619941711
			],
			"min":[
				-4.83950662612915,
				-1.244821548461914,
				-2.0360114574432373
			],
			"type":"VEC3"
		},
		{
			"bufferView":25,
			"componentType":5126,
			"count":2512,
			"type":"VEC2"
		},
		{
			"bufferView":26,
			"componentType":5126,
			"count":2512,
			"type":"VEC3"
		},
		{
			"bufferView":27,
			"componentType":5123,
			"count":3768,
			"type":"SCALAR"
		}
	],
	"bufferViews":[
		{
			"buffer":0,
			"byteLength":128064,
			"byteOffset":0,
			"target":34962
		},
		{
			"buffer":0,
			"byteLength":85376,
			"byteOffset":128064,
			"target":34962
		},
		{
			"buffer":0,
			"byteLength":128064,
			"byteOffset":213440,
			"target":34962
		},
		{
			"buffer":0,
			"byteLength":32016,
			"byteOffset":341504,
			"target":34963
		},
		{
			"buffer":0,
			"byteLength":67584,
			"byteOffset":373520,
			"target":34962
		},
		{
			"buffer":0,
			"byteLength":45056,
			"byteOffset":441104,
			"target":34962
		},
		{
			"buffer":0,
			"byteLength":67584,
			"byteOffset":486160,
			"target":34962
		},
		{
			"buffer":0,
			"byteLength":16896,
			"byteOffset":553744,
			"target":34963
		},
		{
			"buffer":0,
			"byteLength":21312,
			"byteOffset":570640,
			"target":34962
		},
		{
			"buffer":0,
			"byteLength":14208,
			"byteOffset":591952,
			"target":34962
		},
		{
			"buffer":0,
			"byteLength":21312,
			"byteOffset":606160,
			"target":34962
		},
		{
			"buffer":0,
			"byteLength":5328,
			"byteOffset":627472,
			"target":34963
		},
		{
			"buffer":0,
			"byteLength":13440,
			"byteOffset":632800,
			"target":34962
		},
		{
			"buffer":0,
			"byteLength":8960,
			"byteOffset":646240,
			"target":34962
		},
		{
			"buffer":0,
			"byteLength":13440,
			"byteOffset":655200,
			"target":34962
		},
		{
			"buffer":0,
			"byteLength":3360,
			"byteOffset":668640,
			"target":34963
		},
		{
			"buffer":0,
			"byteLength":8640,
			"byteOffset":672000,
			"target":34962
		},
		{
			"buffer":0,
			"byteLength":5760,
			"byteOffset":680640,
			"target":34962
		},
		{
			"buffer":0,
			"byteLength":8640,
			"byteOffset":686400,
			"target":34962
		},
		{
			"buffer":0,
			"byteLength":2160,
			"byteOffset":695040,
			"target":34963
		},
		{
			"buffer":0,
			"byteLength":13440,
			"byteOffset":697200,
			"target":34962
		},
		{
			"buffer":0,
			"byteLength":8960,
			"byteOffset":710640,
			"target":34962
		},
		{
			"buffer":0,
			"byteLength":13440,
			"byteOffset":719600,
			"target":34962
		},
		{
			"buffer":0,
			"byteLength":3360,
			"byteOffset":733040,
			"target":34963
		},
		{
			"buffer":0,
			"byteLength":30144,
			"byteOffset":736400,
			"target":34962
		},
		{
			"buffer":0,
			"byteLength":20096,
			"byteOffset":766544,
			"target":34962
		},
		{
			"buffer":0,
			"byteLength":30144,
			"byteOffset":786640,
			"target":34962
		},
		{
			"buffer":0,
			"byteLength":7536,
			"byteOffset":816784,
			"target":34963
		}
	],
	"buffers":[
		{
			"byteLength":824320,
			"uri":"data:application/octet-stream;base64,"
		}
	]
}
