{
	"asset":{
		"generator":"Khronos glTF Blender I/O v3.5.30",
		"version":"2.0"
	},
	"extensionsUsed":[
		"KHR_materials_specular",
		"KHR_materials_ior",
		"KHR_materials_clearcoat"
	],
	"scene":0,
	"scenes":[
		{
			"name":"Scene",
			"nodes":[
				0
			]
		}
	],
	"nodes":[
		{
			"mesh":0,
			"name":"Cube"
		}
	],
	"materials":[
		{
			"doubleSided":true,
			"extensions":{
				"KHR_materials_specular":{
					"specularColorFactor":[
						1.185678807220699,
						1.185678807220699,
						1.185678807220699
					]
				},
				"KHR_materials_ior":{
					"ior":1.4500000476837158
				}
			},
			"name":"Material",
			"pbrMetallicRoughness":{
				"baseColorFactor":[
					0.1237087994813919,
					0.1237087994813919,
					0.1237087994813919,
					1
				],
				"metallicFactor":0.5227272510528564,
				"roughnessFactor":0.5
			}
		},
		{
			"doubleSided":true,
			"extensions":{
				"KHR_materials_clearcoat":{
					"clearcoatFactor":0.059090908616781235,
					"clearcoatRoughnessFactor":0.029999999329447746
				},
				"KHR_materials_specular":{
					"specularColorFactor":[
						0.056467272715522356,
						0.03965631728677981,
						0.03961658126239629
					]
				},
				"KHR_materials_ior":{
					"ior":9.34999942779541
				}
			},
			"name":"VermelhoNave",
			"pbrMetallicRoughness":{
				"baseColorFactor":[
					0.8000000715255737,
					0.0018864995799958706,
					0,
					1
				],
				"metallicFactor":0.6136363744735718,
				"roughnessFactor":0.48636364936828613
			}
		},
		{
			"doubleSided":true,
			"name":"AmareloNave",
			"pbrMetallicRoughness":{}
		},
		{
			"doubleSided":true,
			"name":"Faixa",
			"pbrMetallicRoughness":{}
		},
		{
			"doubleSided":true,
			"name":"Preto",
			"pbrMetallicRoughness":{
				"baseColorFactor":[
					0,
					0,
					0,
					1
				],
				"metallicFactor":0,
				"roughnessFactor":0.5
			}
		},
		{
			"doubleSided":true,
			"name":"Cinza",
			"pbrMetallicRoughness":{
				"baseColorFactor":[
					0.0006680024089291692,
					0.0011577124241739511,
					0.035217154771089554,
					1
				],
				"metallicFactor":0,
				"roughnessFactor":0.5
			}
		}
	],
	"meshes":[
		{
			"name":"Cube",
			"primitives":[
				{
					"attributes":{
						"POSITION":0,
						"TEXCOORD_0":1,
						"NORMAL":2
					},
					"indices":3,
					"material":0
				},
				{
					"attributes":{
						"POSITION":4,
						"TEXCOORD_0":5,
						"NORMAL":6
					},
					"indices":7,
					"material":1
				},
				{
					"attributes":{
						"POSITION":8,
						"TEXCOORD_0":9,
						"NORMAL":10
					},
					"indices":11,
					"material":2
				},
				{
					"attributes":{
						"POSITION":12,
						"TEXCOORD_0":13,
						"NORMAL":14
					},
					"indices":15,
					"material":3
				},
				{
					"attributes":{
						"POSITION":16,
						"TEXCOORD_0":17,
						"NORMAL":18
					},
					"indices":19,
					"material":4
				},
				{
					"attributes":{
						"POSITION":20,
						"TEXCOORD_0":21,
						"NORMAL":22
					},
					"indices":23,
					"material":5
				}
			]
		}
	],
	"accessors":[
		{
			"bufferView":0,
			"componentType":5126,
			"count":1536,
			"max":[
				5.666666507720947,
				1.6152406930923462,
				5.968199729919434
			],
			"min":[
				-5.666666507720947,
				-0.4134555160999298,
				-5.160950660705566
			],
			"type":"VEC3"
		},
		{
			"bufferView":1,
			"componentType":5126,
			"count":1536,
			"type":"VEC2"
		},
		{
			"bufferView":2,
			"componentType":5126,
			"count":1536,
			"type":"VEC3"
		},
		{
			"bufferView":3,
			"componentType":5123,
			"count":2304,
			"type":"SCALAR"
		},
		{
			"bufferView":4,
			"componentType":5126,
			"count":832,
			"max":[
				4.000000476837158,
				1.6165863275527954,
				5.592639923095703
			],
			"min":[
				-4.000000476837158,
				-0.5903360247612,
				-0.9174081683158875
			],
			"type":"VEC3"
		},
		{
			"bufferView":5,
			"componentType":5126,
			"count":832,
			"type":"VEC2"
		},
		{
			"bufferView":6,
			"componentType":5126,
			"count":832,
			"type":"VEC3"
		},
		{
			"bufferView":7,
			"componentType":5123,
			"count":1248,
			"type":"SCALAR"
		},
		{
			"bufferView":8,
			"componentType":5126,
			"count":2496,
			"max":[
				5.916667461395264,
				2.8281569480895996,
				6.07014799118042
			],
			"min":[
				-5.916667461395264,
				-0.5511011481285095,
				-0.9976927042007446
			],
			"type":"VEC3"
		},
		{
			"bufferView":9,
			"componentType":5126,
			"count":2496,
			"type":"VEC2"
		},
		{
			"bufferView":10,
			"componentType":5126,
			"count":2496,
			"type":"VEC3"
		},
		{
			"bufferView":11,
			"componentType":5123,
			"count":3744,
			"type":"SCALAR"
		},
		{
			"bufferView":12,
			"componentType":5126,
			"count":1856,
			"max":[
				5.666666507720947,
				1.8506144285202026,
				5.968199729919434
			],
			"min":[
				-2.3333334922790527,
				0.0431676022708416,
				-0.6841869354248047
			],
			"type":"VEC3"
		},
		{
			"bufferView":13,
			"componentType":5126,
			"count":1856,
			"type":"VEC2"
		},
		{
			"bufferView":14,
			"componentType":5126,
			"count":1856,
			"type":"VEC3"
		},
		{
			"bufferView":15,
			"componentType":5123,
			"count":2784,
			"type":"SCALAR"
		},
		{
			"bufferView":16,
			"componentType":5126,
			"count":1856,
			"max":[
				1.7673611640930176,
				1.791271686553955,
				5.382031440734863
			],
			"min":[
				-1.7673611640930176,
				-0.49465805292129517,
				-3.5251972675323486
			],
			"type":"VEC3"
		},
		{
			"bufferView":17,
			"componentType":5126,
			"count":1856,
			"type":"VEC2"
		},
		{
			"bufferView":18,
			"componentType":5126,
			"count":1856,
			"type":"VEC3"
		},
		{
			"bufferView":19,
			"componentType":5123,
			"count":2784,
			"type":"SCALAR"
		},
		{
			"bufferView":20,
			"componentType":5126,
			"count":1664,
			"max":[
				5.666666507720947,
				1.7119630575180054,
				5.950866222381592
			],
			"min":[
				-5.6666669845581055,
				-0.5528742671012878,
				-4.821616172790527
			],
			"type":"VEC3"
		},
		{
			"bufferView":21,
			"componentType":5126,
			"count":1664,
			"type":"VEC2"
		},
		{
			"bufferView":22,
			"componentType":5126,
			"count":1664,
			"type":"VEC3"
		},
		{
			"bufferView":23,
			"componentType":5123,
			"count":2496,
			"type":"SCALAR"
		}
	],
	"bufferViews":[
		{
			"buffer":0,
			"byteLength":18432,
			"byteOffset":0,
			"target":34962
		},
		{
			"buffer":0,
			"byteLength":12288,
			"byteOffset":18432,
			"target":34962
		},
		{
			"buffer":0,
			"byteLength":18432,
			"byteOffset":30720,
			"target":34962
		},
		{
			"buffer":0,
			"byteLength":4608,
			"byteOffset":49152,
			"target":34963
		},
		{
			"buffer":0,
			"byteLength":9984,
			"byteOffset":53760,
			"target":34962
		},
		{
			"buffer":0,
			"byteLength":6656,
			"byteOffset":63744,
			"target":34962
		},
		{
			"buffer":0,
			"byteLength":9984,
			"byteOffset":70400,
			"target":34962
		},
		{
			"buffer":0,
			"byteLength":2496,
			"byteOffset":80384,
			"target":34963
		},
		{
			"buffer":0,
			"byteLength":29952,
			"byteOffset":82880,
			"target":34962
		},
		{
			"buffer":0,
			"byteLength":19968,
			"byteOffset":112832,
			"target":34962
		},
		{
			"buffer":0,
			"byteLength":29952,
			"byteOffset":132800,
			"target":34962
		},
		{
			"buffer":0,
			"byteLength":7488,
			"byteOffset":162752,
			"target":34963
		},
		{
			"buffer":0,
			"byteLength":22272,
			"byteOffset":170240,
			"target":34962
		},
		{
			"buffer":0,
			"byteLength":14848,
			"byteOffset":192512,
			"target":34962
		},
		{
			"buffer":0,
			"byteLength":22272,
			"byteOffset":207360,
			"target":34962
		},
		{
			"buffer":0,
			"byteLength":5568,
			"byteOffset":229632,
			"target":34963
		},
		{
			"buffer":0,
			"byteLength":22272,
			"byteOffset":235200,
			"target":34962
		},
		{
			"buffer":0,
			"byteLength":14848,
			"byteOffset":257472,
			"target":34962
		},
		{
			"buffer":0,
			"byteLength":22272,
			"byteOffset":272320,
			"target":34962
		},
		{
			"buffer":0,
			"byteLength":5568,
			"byteOffset":294592,
			"target":34963
		},
		{
			"buffer":0,
			"byteLength":19968,
			"byteOffset":300160,
			"target":34962
		},
		{
			"buffer":0,
			"byteLength":13312,
			"byteOffset":320128,
			"target":34962
		},
		{
			"buffer":0,
			"byteLength":19968,
			"byteOffset":333440,
			"target":34962
		},
		{
			"buffer":0,
			"byteLength":4992,
			"byteOffset":353408,
			"target":34963
		}
	],
	"buffers":[
		{
			"byteLength":358400,
			"uri":"data:application/octet-stream;base64,"
		}
	]
}
