{
	"asset":{
		"generator":"Khronos glTF Blender I/O v3.5.30",
		"version":"2.0"
	},
	"scene":0,
	"scenes":[
		{
			"name":"Scene",
			"nodes":[
				0
			]
		}
	],
	"nodes":[
		{
			"mesh":0,
			"name":"Cubo"
		}
	],
	"materials":[
		{
			"doubleSided":true,
			"name":"verde",
			"pbrMetallicRoughness":{
				"baseColorFactor":[
					0.012982375919818878,
					0.7991027235984802,
					0.05126967281103134,
					1
				],
				"metallicFactor":0,
				"roughnessFactor":0.5
			}
		}
	],
	"meshes":[
		{
			"name":"Cubo.001",
			"primitives":[
				{
					"attributes":{
						"POSITION":0,
						"TEXCOORD_0":1,
						"NORMAL":2
					},
					"indices":3,
					"material":0
				}
			]
		}
	],
	"accessors":[
		{
			"bufferView":0,
			"componentType":5126,
			"count":31872,
			"max":[
				1.10599684715271,
				1.1059963703155518,
				3.8757987022399902
			],
			"min":[
				-1.1059964895248413,
				-1.1059964895248413,
				-1.3086265325546265
			],
			"type":"VEC3"
		},
		{
			"bufferView":1,
			"componentType":5126,
			"count":31872,
			"type":"VEC2"
		},
		{
			"bufferView":2,
			"componentType":5126,
			"count":31872,
			"type":"VEC3"
		},
		{
			"bufferView":3,
			"componentType":5123,
			"count":49152,
			"type":"SCALAR"
		}
	],
	"bufferViews":[
		{
			"buffer":0,
			"byteLength":382464,
			"byteOffset":0,
			"target":34962
		},
		{
			"buffer":0,
			"byteLength":254976,
			"byteOffset":382464,
			"target":34962
		},
		{
			"buffer":0,
			"byteLength":382464,
			"byteOffset":637440,
			"target":34962
		},
		{
			"buffer":0,
			"byteLength":98304,
			"byteOffset":1019904,
			"target":34963
		}
	],
	"buffers":[
		{
			"byteLength":1118208,
			"uri":"data:application/octet-stream;base64,"
		}
	]
}
